<mxfile host="app.diagrams.net" agent="Mozilla/5.0 (Windows NT 10.0; Win64; x64) AppleWebKit/537.36 (KHTML, like Gecko) Chrome/140.0.0.0 Safari/537.36" version="28.2.7">
  <diagram name="Page-1" id="R6LBFpYfKxeN89xoqFTI">
    <mxGraphModel dx="786" dy="459" grid="1" gridSize="10" guides="1" tooltips="1" connect="1" arrows="1" fold="1" page="1" pageScale="1" pageWidth="827" pageHeight="1169" math="0" shadow="0">
      <root>
        <mxCell id="0" />
        <mxCell id="1" parent="0" />
        <mxCell id="XIyks7F8ZKbAKQhv9sJO-1" value="" style="rounded=1;whiteSpace=wrap;html=1;" vertex="1" parent="1">
          <mxGeometry x="294" y="90" width="120" height="60" as="geometry" />
        </mxCell>
        <mxCell id="XIyks7F8ZKbAKQhv9sJO-2" value="Client App" style="text;html=1;whiteSpace=wrap;strokeColor=none;fillColor=none;align=center;verticalAlign=middle;rounded=0;" vertex="1" parent="1">
          <mxGeometry x="324" y="105" width="60" height="30" as="geometry" />
        </mxCell>
        <mxCell id="XIyks7F8ZKbAKQhv9sJO-3" value="" style="rounded=1;whiteSpace=wrap;html=1;" vertex="1" parent="1">
          <mxGeometry x="294" y="215" width="120" height="60" as="geometry" />
        </mxCell>
        <mxCell id="XIyks7F8ZKbAKQhv9sJO-4" value="API Gateway" style="text;html=1;whiteSpace=wrap;strokeColor=none;fillColor=none;align=center;verticalAlign=middle;rounded=0;" vertex="1" parent="1">
          <mxGeometry x="324" y="230" width="60" height="30" as="geometry" />
        </mxCell>
        <mxCell id="XIyks7F8ZKbAKQhv9sJO-5" value="Redis Cache" style="text;html=1;whiteSpace=wrap;strokeColor=none;fillColor=none;align=center;verticalAlign=middle;rounded=0;" vertex="1" parent="1">
          <mxGeometry x="180" y="350" width="60" height="30" as="geometry" />
        </mxCell>
        <mxCell id="XIyks7F8ZKbAKQhv9sJO-6" value="Database(Mysql)" style="text;html=1;whiteSpace=wrap;strokeColor=none;fillColor=none;align=center;verticalAlign=middle;rounded=0;" vertex="1" parent="1">
          <mxGeometry x="460" y="350" width="60" height="30" as="geometry" />
        </mxCell>
        <mxCell id="XIyks7F8ZKbAKQhv9sJO-8" value="" style="endArrow=classic;html=1;rounded=0;exitX=1;exitY=1;exitDx=0;exitDy=0;entryX=0;entryY=0.25;entryDx=0;entryDy=0;" edge="1" parent="1" source="XIyks7F8ZKbAKQhv9sJO-3" target="XIyks7F8ZKbAKQhv9sJO-6">
          <mxGeometry width="50" height="50" relative="1" as="geometry">
            <mxPoint x="380" y="430" as="sourcePoint" />
            <mxPoint x="430" y="380" as="targetPoint" />
          </mxGeometry>
        </mxCell>
        <mxCell id="XIyks7F8ZKbAKQhv9sJO-9" value="" style="endArrow=classic;html=1;rounded=0;exitX=0;exitY=1;exitDx=0;exitDy=0;entryX=0.9;entryY=-0.111;entryDx=0;entryDy=0;entryPerimeter=0;" edge="1" parent="1" source="XIyks7F8ZKbAKQhv9sJO-3" target="XIyks7F8ZKbAKQhv9sJO-5">
          <mxGeometry width="50" height="50" relative="1" as="geometry">
            <mxPoint x="380" y="430" as="sourcePoint" />
            <mxPoint x="430" y="380" as="targetPoint" />
          </mxGeometry>
        </mxCell>
        <mxCell id="XIyks7F8ZKbAKQhv9sJO-10" value="Stores frequently accessed data" style="text;html=1;whiteSpace=wrap;strokeColor=none;fillColor=none;align=center;verticalAlign=middle;rounded=0;" vertex="1" parent="1">
          <mxGeometry x="165" y="450" width="90" height="30" as="geometry" />
        </mxCell>
        <mxCell id="XIyks7F8ZKbAKQhv9sJO-11" value="" style="endArrow=classic;html=1;rounded=0;exitX=0.5;exitY=1;exitDx=0;exitDy=0;" edge="1" parent="1" source="XIyks7F8ZKbAKQhv9sJO-5">
          <mxGeometry width="50" height="50" relative="1" as="geometry">
            <mxPoint x="380" y="330" as="sourcePoint" />
            <mxPoint x="210" y="440" as="targetPoint" />
          </mxGeometry>
        </mxCell>
        <mxCell id="XIyks7F8ZKbAKQhv9sJO-12" value="" style="endArrow=classic;html=1;rounded=0;exitX=0.5;exitY=1;exitDx=0;exitDy=0;entryX=0.5;entryY=0;entryDx=0;entryDy=0;" edge="1" parent="1" source="XIyks7F8ZKbAKQhv9sJO-1" target="XIyks7F8ZKbAKQhv9sJO-3">
          <mxGeometry width="50" height="50" relative="1" as="geometry">
            <mxPoint x="380" y="330" as="sourcePoint" />
            <mxPoint x="430" y="280" as="targetPoint" />
          </mxGeometry>
        </mxCell>
      </root>
    </mxGraphModel>
  </diagram>
</mxfile>
